<svg id="Layer_1" data-name="Layer 1" xmlns="http://www.w3.org/2000/svg" viewBox="0 0 100 300"><defs><style>.cls-1{fill:#fafafa;}.cls-2{fill:#ffc610;}.cls-3{fill:#f15a24;}.cls-4,.cls-5,.cls-6,.cls-8,.cls-9{fill:#fff;}.cls-4{opacity:0.28;}.cls-5{font-size:16px;letter-spacing:0.05em;}.cls-10,.cls-5,.cls-6,.cls-8,.cls-9{font-family:Amboy-Black, Amboy ;font-weight:800;}.cls-6{font-size:35px;}.cls-10,.cls-6{letter-spacing:0.05em;}.cls-7{fill:#0071bc;}.cls-8{font-size:18px;letter-spacing:0.05em;}.cls-9{font-size:31px;letter-spacing:0.05em;}.cls-10{font-size:30px;}</style></defs><rect class="cls-1" width="100" height="300"/><rect class="cls-2" x="20.5" y="220.5" width="59" height="59" rx="9.99"/><path d="M69.51,222.5a8,8,0,0,1,8,8v39a8,8,0,0,1-8,8h-39a8,8,0,0,1-8-8v-39a8,8,0,0,1,8-8h39m0-4h-39a12,12,0,0,0-12,12v39a12,12,0,0,0,12,12h39a12,12,0,0,0,12-12v-39a12,12,0,0,0-12-12Z" transform="translate(0)"/><path class="cls-3" d="M70.48,82.28,50.8,86.54a2.55,2.55,0,0,1-1.1,0L30,82.28a2.61,2.61,0,0,1-2-2.17L19.21,22.42a2.63,2.63,0,0,1,2.59-3H78.7a2.63,2.63,0,0,1,2.59,3L72.52,80.11A2.61,2.61,0,0,1,70.48,82.28Z" transform="translate(0)"/><path class="cls-4" d="M67.62,76.31,50.25,79.88v-54H74.4a2.2,2.2,0,0,1,2.18,2.53L69.92,73.88A2.92,2.92,0,0,1,67.62,76.31Z" transform="translate(0)"/><text class="cls-5" transform="translate(27.87 41.18)">HTML</text><text class="cls-6" transform="translate(40.47 73.1)">5</text><path class="cls-7" d="M70.23,182.28l-19.68,4.26a2.55,2.55,0,0,1-1.1,0l-19.68-4.26a2.61,2.61,0,0,1-2-2.17L19,122.42a2.63,2.63,0,0,1,2.59-3h56.9a2.63,2.63,0,0,1,2.59,3l-8.77,57.69A2.61,2.61,0,0,1,70.23,182.28Z" transform="translate(0)"/><path class="cls-4" d="M67.37,176.31,50,179.88v-54H74.15a2.21,2.21,0,0,1,2.18,2.53l-6.66,45.45A2.92,2.92,0,0,1,67.37,176.31Z" transform="translate(0)"/><text class="cls-8" transform="translate(34.46 143.83)">css</text><text class="cls-9" transform="translate(41.37 173.1)">3</text><text class="cls-10" transform="translate(39.52 274.11)">JS</text></svg>