<svg id="Layer_1" data-name="Layer 1" xmlns="http://www.w3.org/2000/svg" viewBox="0 0 100 300"><defs><style>.cls-1{fill:#fafafa;}.cls-2{fill:#001e36;}.cls-3{fill:#31a8ff;}.cls-4{fill:#300;}.cls-5{fill:#ff9a00;}.cls-6{fill:#470137;}.cls-7{fill:#ff61f6;}</style></defs><rect class="cls-1" width="100" height="300"/><g id="Layer_2" data-name="Layer 2"><g id="Surfaces"><g id="Photo_Surface" data-name="Photo Surface"><g id="Outline_no_shadow" data-name="Outline no shadow"><path class="cls-2" d="M29.26,18.5H71A11.43,11.43,0,0,1,82.43,29.94V70.06A11.43,11.43,0,0,1,71,81.5H29.26A11.43,11.43,0,0,1,17.82,70.06V29.94A11.43,11.43,0,0,1,29.26,18.5Z" transform="translate(0)"/></g></g></g><g id="Outlined_Mnemonics_Logos" data-name="Outlined Mnemonics Logos"><g id="Ps"><path class="cls-3" d="M32.36,62.68V35c0-.19.08-.3.27-.3.45,0,.88,0,1.5,0s1.32,0,2,0,1.51,0,2.34-.05,1.64,0,2.45,0a16,16,0,0,1,5.55.83,9.84,9.84,0,0,1,3.61,2.21,8.54,8.54,0,0,1,2,3.07,10.4,10.4,0,0,1,.62,3.5,9.62,9.62,0,0,1-1.62,5.74,9.24,9.24,0,0,1-4.33,3.28,17.52,17.52,0,0,1-6.06.92c-.64,0-1.07,0-1.34,0s-.65,0-1.16,0v8.64a.34.34,0,0,1-.3.38H32.68C32.46,63,32.36,62.92,32.36,62.68Zm5.87-22.8v9c.37,0,.72.06,1.05.06H40.7a9.9,9.9,0,0,0,3.1-.49A4.67,4.67,0,0,0,46,47.07a4.21,4.21,0,0,0,.83-2.78,4.39,4.39,0,0,0-.62-2.39,3.94,3.94,0,0,0-1.88-1.54,8.13,8.13,0,0,0-3.18-.54c-.7,0-1.32,0-1.83,0a5.45,5.45,0,0,0-1.1,0Z" transform="translate(0)"/><path class="cls-3" d="M69.51,47.28a9.32,9.32,0,0,0-2.58-.91,14,14,0,0,0-3-.35,5.52,5.52,0,0,0-1.62.18,1.37,1.37,0,0,0-.83.54,1.51,1.51,0,0,0-.22.73,1.23,1.23,0,0,0,.27.7,3.13,3.13,0,0,0,.92.73c.62.32,1.26.62,1.91.88a20,20,0,0,1,4.15,2A6.29,6.29,0,0,1,70.61,54a5.83,5.83,0,0,1,.62,2.78,6.25,6.25,0,0,1-1,3.58,6.66,6.66,0,0,1-3,2.39,12.28,12.28,0,0,1-4.88.87,18.76,18.76,0,0,1-3.66-.35,10.94,10.94,0,0,1-2.74-.87.51.51,0,0,1-.3-.51V57.19A.29.29,0,0,1,55.7,57c.08-.06.16,0,.24,0a11.48,11.48,0,0,0,3.34,1.32,12.49,12.49,0,0,0,3.18.41,5.14,5.14,0,0,0,2.23-.38,1.26,1.26,0,0,0,.73-1.13,1.43,1.43,0,0,0-.65-1.08,11.39,11.39,0,0,0-2.64-1.26,16.55,16.55,0,0,1-3.82-1.94,7.17,7.17,0,0,1-2.05-2.29,5.86,5.86,0,0,1-.62-2.75,6.34,6.34,0,0,1,.92-3.25,6.61,6.61,0,0,1,2.83-2.48,10.36,10.36,0,0,1,4.76-.94,23.35,23.35,0,0,1,3.34.24,9.45,9.45,0,0,1,2.32.62.48.48,0,0,1,.27.24,1.92,1.92,0,0,1,0,.32V47a.31.31,0,0,1-.14.27A.76.76,0,0,1,69.51,47.28Z" transform="translate(0)"/></g></g></g><g id="Layer_2-2" data-name="Layer 2"><g id="Surfaces-2" data-name="Surfaces"><g id="Drawing_Surface" data-name="Drawing Surface"><g id="Outline_no_shadow-2" data-name="Outline no shadow"><path class="cls-4" d="M29,218.5H70.72a11.44,11.44,0,0,1,11.44,11.44v40.12A11.44,11.44,0,0,1,70.72,281.5H29a11.44,11.44,0,0,1-11.45-11.44V229.94A11.44,11.44,0,0,1,29,218.5Z" transform="translate(0)"/></g></g></g><g id="Outlined_Mnemonics_Logos-2" data-name="Outlined Mnemonics Logos"><g id="Ai"><path class="cls-5" d="M48.85,256.3h-10l-2.05,6.33a.46.46,0,0,1-.51.37H31.22c-.3,0-.38-.16-.3-.48l8.67-25c.08-.27.16-.56.27-.89a9.11,9.11,0,0,0,.16-1.75.26.26,0,0,1,.22-.29h7c.22,0,.33.08.35.21l9.83,27.73c.08.3,0,.43-.27.43H51.49a.4.4,0,0,1-.43-.29Zm-8.45-5.47h6.84c-.16-.56-.38-1.23-.62-1.93s-.48-1.51-.73-2.32-.51-1.64-.78-2.48-.51-1.61-.72-2.39-.41-1.46-.6-2.1h0a31.77,31.77,0,0,1-.92,3.47c-.4,1.29-.8,2.64-1.23,4s-.79,2.63-1.19,3.76Z" transform="translate(0)"/><path class="cls-5" d="M63.26,239.23a3.33,3.33,0,0,1-2.4-.94,3.47,3.47,0,0,1-.91-2.48,3.12,3.12,0,0,1,1-2.39,3.42,3.42,0,0,1,2.39-.95,3.22,3.22,0,0,1,2.45.95,3.37,3.37,0,0,1,.89,2.39,3.41,3.41,0,0,1-.94,2.48A3.21,3.21,0,0,1,63.26,239.23Zm-3,23.37V241.87c0-.27.11-.38.35-.38h5.33c.25,0,.35.14.35.38V262.6c0,.3-.1.43-.35.43H60.65A.38.38,0,0,1,60.24,262.6Z" transform="translate(0)"/></g></g></g><g id="Layer_2-3" data-name="Layer 2"><g id="Surfaces-3" data-name="Surfaces"><g id="UI_UX_Surface" data-name="UI UX Surface"><g id="Outline_no_shadow-3" data-name="Outline no shadow"><path class="cls-6" d="M29.26,118.5H71a11.43,11.43,0,0,1,11.44,11.44v40.12A11.43,11.43,0,0,1,71,181.5H29.26a11.43,11.43,0,0,1-11.44-11.44V129.94A11.43,11.43,0,0,1,29.26,118.5Z" transform="translate(0)"/></g></g></g><g id="Outlined_Mnemonics_Logos-3" data-name="Outlined Mnemonics Logos"><g id="Xd"><path class="cls-7" d="M51.79,135.06l-8.07,13.32,8.61,14.14a.46.46,0,0,1,.06.32c0,.11-.14,0-.3.06H45.93c-.44,0-.73,0-.92-.3-.57-1.13-1.16-2.23-1.72-3.37s-1.19-2.23-1.83-3.39-1.3-2.31-1.94-3.5h-.06c-.56,1.16-1.18,2.32-1.8,3.48s-1.24,2.31-1.83,3.44-1.24,2.29-1.86,3.39c-.11.27-.32.3-.62.3H27.43c-.11,0-.19.05-.19-.08a.38.38,0,0,1,.05-.3l8.38-13.73L27.51,135c-.08-.11-.11-.21-.05-.27a.31.31,0,0,1,.27-.11h6.11a1.36,1.36,0,0,1,.37.06.68.68,0,0,1,.27.24c.51,1.16,1.11,2.32,1.73,3.47s1.26,2.29,1.93,3.42,1.24,2.26,1.81,3.42h0c.57-1.18,1.16-2.34,1.75-3.47s1.21-2.26,1.83-3.39,1.21-2.29,1.81-3.4a.47.47,0,0,1,.16-.27.51.51,0,0,1,.35,0h5.68a.25.25,0,0,1,.3.19s0,.13-.09.19Z" transform="translate(0)"/><path class="cls-7" d="M64.23,163.46a13.44,13.44,0,0,1-5.79-1.21,9.39,9.39,0,0,1-4.06-3.66,11.61,11.61,0,0,1-1.48-6.14,11,11,0,0,1,1.48-5.68,11.13,11.13,0,0,1,4.28-4.17A13.77,13.77,0,0,1,65.47,141a4.4,4.4,0,0,1,.57,0c.24,0,.51,0,.83.06v-8.51c0-.19.08-.3.27-.3h5.47a.24.24,0,0,1,.27.19v25.68c0,.49,0,1,.05,1.62s.08,1.1.11,1.56a.43.43,0,0,1-.27.43,20.14,20.14,0,0,1-4.39,1.29A23,23,0,0,1,64.23,163.46Zm2.64-5.38V146.23a5.86,5.86,0,0,0-.73-.13,8.67,8.67,0,0,0-.88-.06,6.75,6.75,0,0,0-3.05.7,6.06,6.06,0,0,0-2.28,2,5.93,5.93,0,0,0-.89,3.42,7.51,7.51,0,0,0,.45,2.78,5.34,5.34,0,0,0,1.22,1.91,4.76,4.76,0,0,0,1.83,1.08,7.07,7.07,0,0,0,2.23.35c.41,0,.78,0,1.13-.06A2.43,2.43,0,0,0,66.87,158.08Z" transform="translate(0)"/></g></g></g></svg>